<svg xmlns="http://www.w3.org/2000/svg" viewBox="0 0 500 500"><g id="freepik--background-simple--inject-50"><path d="M460.24,239.65c-4.92,41.6-23.92,90-61.86,112.21C341.05,385.44,345.85,437.1,234,459.56a230.34,230.34,0,0,1-49.62,4.68,191.22,191.22,0,0,1-24.35-2C88.86,451.87,41,402.43,23.45,342.76.34,264.28,46.48,212.9,77.06,181.94S130,54.53,239.87,31.59a223.4,223.4,0,0,1,51-4.85c39.08,1,81.71,13.79,111.2,40.58q3.31,3,6.47,6.24C449.52,115.64,466.94,182.92,460.24,239.65Z" style="fill:#92E3A9"></path><path d="M460.24,239.65c-4.92,41.6-23.92,90-61.86,112.21C341.05,385.44,345.85,437.1,234,459.56a230.34,230.34,0,0,1-49.62,4.68,191.22,191.22,0,0,1-24.35-2C88.86,451.87,41,402.43,23.45,342.76.34,264.28,46.48,212.9,77.06,181.94S130,54.53,239.87,31.59a223.4,223.4,0,0,1,51-4.85c39.08,1,81.71,13.79,111.2,40.58q3.31,3,6.47,6.24C449.52,115.64,466.94,182.92,460.24,239.65Z" style="fill:#fff;opacity:0.7000000000000001"></path></g><g id="freepik--Floor--inject-50"><rect x="26.82" y="472.45" width="433.79" height="1" style="fill:#263238"></rect><rect x="468.45" y="472.45" width="10.68" height="1" style="fill:#263238"></rect></g><g id="freepik--Plants--inject-50"><path d="M127.3,423.52s1-2.53,1.1-2.7c.53-2,.41-6-1.49-7.28a2.69,2.69,0,0,0-3.83,1.14c-.73,1.42-.28,3.34.37,4.7C124.22,421,127.29,423.52,127.3,423.52Z" style="fill:#92E3A9"></path><path d="M87.48,417.54c1.52.91,5.48,1.33,5.48,1.33s-.52-2.69-.57-2.86c-.63-1.92-3-5.27-5.26-5.25a2.68,2.68,0,0,0-2.56,3.06C84.74,415.41,86.18,416.76,87.48,417.54Z" style="fill:#92E3A9"></path><path d="M87.38,429.15c1.64.46,5.29-.11,5.58-.16a48.53,48.53,0,0,0,1.38,6.19c.34,1.18.72,2.36,1.12,3.54-.26-.51-.5-1-.54-1-1.12-1.69-4.27-4.29-6.46-3.68a2.68,2.68,0,0,0-1.66,3.63c.59,1.49,2.33,2.41,3.79,2.82s4.6,0,5.43-.14c.15.46.3.91.46,1.36.76,2.16,1.53,4.32,2.22,6.45.24.75.46,1.5.67,2.25-.23-.45-.43-.83-.47-.89-1.12-1.68-4.27-4.29-6.46-3.67a2.68,2.68,0,0,0-1.66,3.63c.59,1.49,2.33,2.41,3.79,2.82a17,17,0,0,0,5.28-.12c.19.78.39,1.55.55,2.31.09.52.22,1,.28,1.55s.16,1,.23,1.55c.11,1,.23,2,.31,3,.06.67.1,1.31.15,2-.23-.75-.72-2.21-.77-2.33-.86-1.84-3.58-4.89-5.83-4.61a2.7,2.7,0,0,0-2.2,3.34c.36,1.56,1.94,2.73,3.32,3.35s5.07.7,5.52.69c.07,1.08.14,2.12.18,3.1.13,2.71.16,5.05.15,6.9h1.5c0-1.87-.12-4.24-.31-7-.07-1.09-.17-2.25-.28-3.45a29.36,29.36,0,0,0,3.26-1A19.6,19.6,0,0,0,110,465c-.53.93-1,1.84-1.56,2.68-1.23,2.07-2.37,3.86-3.33,5.32h1.74c.83-1.33,1.76-2.89,2.75-4.64.54-.95,1.1-2,1.66-3,.42.14,3.79,1.29,5.45,1.13,1.5-.14,3.38-.74,4.22-2.11a2.68,2.68,0,0,0-1-3.86c-2-1-5.6,1-7,2.48-.08.08-.87,1.12-1.36,1.78.23-.43.45-.85.68-1.3.46-.88.89-1.78,1.36-2.74.21-.47.42-1,.64-1.43s.39-1,.6-1.51c.44-1.18.84-2.39,1.21-3.63.77.4,3.54,1.78,5.06,1.87s3.46-.23,4.49-1.45a2.67,2.67,0,0,0-.4-4c-1.86-1.29-5.69.16-7.3,1.39-.1.08-1.15,1.09-1.71,1.66.21-.74.43-1.48.63-2.24.56-2.2,1.06-4.44,1.57-6.67.15-.68.32-1.36.48-2,.27.14,3.53,1.85,5.23,1.95,1.51.09,3.46-.22,4.5-1.44a2.69,2.69,0,0,0-.4-4c-1.87-1.29-5.7.15-7.3,1.39-.12.09-1.64,1.55-2,1.94.35-1.5.72-3,1.14-4.44a46.2,46.2,0,0,1,2.06-5.77c.13.06,3.52,1.87,5.26,2,1.51.08,3.46-.23,4.5-1.45a2.68,2.68,0,0,0-.41-4c-1.86-1.29-5.69.15-7.29,1.39-.11.08-1.26,1.19-1.8,1.74l-.1-.08a34,34,0,0,1,3.08-5.34c.64-.93,1.3-1.79,2-2.61.6.4,3.35,2.2,4.91,2.46s3.46.16,4.63-.94a2.68,2.68,0,0,0,0-4c-1.71-1.48-5.67-.47-7.4.58-.1.06-1,.74-1.63,1.25.3-.36.61-.75.91-1.09,1.12-1.3,2.23-2.42,3.22-3.4.57-.55,1.09-1,1.58-1.49.8.08,4,.39,5.47-.08s3.14-1.46,3.67-3a2.69,2.69,0,0,0-1.81-3.56c-2.2-.53-5.25,2.2-6.31,3.93-.09.15-1.24,2.65-1.2,2.65h0c-.49.43-1,.89-1.55,1.41-1,1-2.15,2.06-3.3,3.33a49.28,49.28,0,0,0-3.54,4.3,34.94,34.94,0,0,0-3.22,5.32l0,.07c.09-.66.3-2.51.3-2.65,0-2-1.2-5.94-3.36-6.63a2.69,2.69,0,0,0-3.39,2.11c-.33,1.57.61,3.3,1.61,4.44,1.11,1.29,4.48,2.83,4.74,2.95a48,48,0,0,0-2.26,5.92c-.37,1.18-.7,2.37-1,3.58.06-.57.12-1.08.12-1.16,0-2-1.2-5.93-3.36-6.62a2.67,2.67,0,0,0-3.39,2.11c-.34,1.56.61,3.29,1.6,4.44s3.85,2.53,4.6,2.88l-.36,1.38c-.55,2.23-1.1,4.45-1.71,6.61-.21.76-.45,1.5-.68,2.25.06-.51.1-.94.1-1,0-2-1.2-5.94-3.36-6.63a2.69,2.69,0,0,0-3.39,2.11c-.33,1.57.61,3.3,1.6,4.44a17.19,17.19,0,0,0,4.47,2.82c-.26.75-.52,1.51-.81,2.23-.21.48-.38,1-.62,1.44l-.66,1.42c-.46.89-.92,1.8-1.39,2.65-.32.6-.64,1.16-1,1.73.22-.76.62-2.25.64-2.37a10.32,10.32,0,0,0-.74-5.21,2.93,2.93,0,0,0,0-.59,2.69,2.69,0,0,0-3-2.68c-2.24.3-4.11,3.94-4.47,5.93,0,.12-.11,1.42-.15,2.24,0-.48-.09-1-.15-1.46-.1-1-.24-2-.38-3-.08-.51-.17-1-.26-1.55s-.22-1-.33-1.58c-.28-1.23-.62-2.47-1-3.7.87-.1,3.94-.47,5.25-1.24s2.76-2.09,3-3.68a2.67,2.67,0,0,0-2.52-3.09c-2.27-.05-4.67,3.27-5.32,5.18,0,.12-.36,1.55-.52,2.34-.23-.75-.46-1.49-.71-2.23-.74-2.14-1.56-4.28-2.37-6.42-.25-.66-.48-1.32-.73-2,.31,0,4-.4,5.45-1.26,1.3-.76,2.76-2.09,3-3.68a2.68,2.68,0,0,0-2.53-3.09c-2.26-.05-4.66,3.27-5.32,5.18,0,.15-.5,2.2-.59,2.73-.53-1.45-1-2.89-1.5-4.34A49.16,49.16,0,0,1,93.49,429c.15,0,4-.38,5.48-1.26,1.31-.76,2.76-2.09,3-3.68A2.69,2.69,0,0,0,99.4,421c-2.27,0-4.67,3.28-5.33,5.19,0,.13-.39,1.69-.53,2.44h-.13a34.37,34.37,0,0,1-.38-6.16c0-1.13.1-2.21.2-3.26.72,0,4,0,5.45-.65s3-1.78,3.34-3.34a2.68,2.68,0,0,0-2.17-3.35c-2.25-.29-5,2.74-5.86,4.57,0,.1-.41,1.16-.67,1.94.06-.47.1-1,.16-1.41.22-1.7.53-3.25.81-4.61.17-.78.34-1.47.5-2.13.71-.36,3.54-1.86,4.51-3.07s1.82-3,1.43-4.5a2.69,2.69,0,0,0-3.47-2c-2.13.78-3.17,4.74-3.1,6.76,0,.17.43,2.9.47,2.88l0,0c-.17.62-.34,1.29-.52,2-.31,1.36-.65,2.9-.91,4.6a47.45,47.45,0,0,0-.58,5.53,35.65,35.65,0,0,0,.25,6.22s0,.05,0,.07c-.28-.6-1.13-2.25-1.21-2.37-1.12-1.69-4.27-4.29-6.46-3.68a2.68,2.68,0,0,0-1.66,3.63C84.18,427.82,85.92,428.74,87.38,429.15Z" style="fill:#92E3A9"></path><path d="M87.48,417.54c1.52.91,5.48,1.33,5.48,1.33s-.52-2.69-.57-2.86c-.63-1.92-3-5.27-5.26-5.25a2.68,2.68,0,0,0-2.56,3.06C84.74,415.41,86.18,416.76,87.48,417.54Z" style="fill:#92E3A9;opacity:0.30000000000000004"></path><path d="M127.3,423.52s1-2.53,1.1-2.7c.53-2,.41-6-1.49-7.28a2.69,2.69,0,0,0-3.83,1.14c-.73,1.42-.28,3.34.37,4.7C124.22,421,127.29,423.52,127.3,423.52Z" style="fill:#92E3A9;opacity:0.30000000000000004"></path><path d="M87.38,429.15c1.64.46,5.29-.11,5.58-.16a48.53,48.53,0,0,0,1.38,6.19c.34,1.18.72,2.36,1.12,3.54-.26-.51-.5-1-.54-1-1.12-1.69-4.27-4.29-6.46-3.68a2.68,2.68,0,0,0-1.66,3.63c.59,1.49,2.33,2.41,3.79,2.82s4.6,0,5.43-.14c.15.46.3.91.46,1.36.76,2.16,1.53,4.32,2.22,6.45.24.75.46,1.5.67,2.25-.23-.45-.43-.83-.47-.89-1.12-1.68-4.27-4.29-6.46-3.67a2.68,2.68,0,0,0-1.66,3.63c.59,1.49,2.33,2.41,3.79,2.82a17,17,0,0,0,5.28-.12c.19.78.39,1.55.55,2.31.09.52.22,1,.28,1.55s.16,1,.23,1.55c.11,1,.23,2,.31,3,.06.67.1,1.31.15,2-.23-.75-.72-2.21-.77-2.33-.86-1.84-3.58-4.89-5.83-4.61a2.7,2.7,0,0,0-2.2,3.34c.36,1.56,1.94,2.73,3.32,3.35s5.07.7,5.52.69c.07,1.08.14,2.12.18,3.1.13,2.71.16,5.05.15,6.9h1.5c0-1.87-.12-4.24-.31-7-.07-1.09-.17-2.25-.28-3.45a29.36,29.36,0,0,0,3.26-1A19.6,19.6,0,0,0,110,465c-.53.93-1,1.84-1.56,2.68-1.23,2.07-2.37,3.86-3.33,5.32h1.74c.83-1.33,1.76-2.89,2.75-4.64.54-.95,1.1-2,1.66-3,.42.14,3.79,1.29,5.45,1.13,1.5-.14,3.38-.74,4.22-2.11a2.68,2.68,0,0,0-1-3.86c-2-1-5.6,1-7,2.48-.08.08-.87,1.12-1.36,1.78.23-.43.45-.85.68-1.3.46-.88.89-1.78,1.36-2.74.21-.47.42-1,.64-1.43s.39-1,.6-1.51c.44-1.18.84-2.39,1.21-3.63.77.4,3.54,1.78,5.06,1.87s3.46-.23,4.49-1.45a2.67,2.67,0,0,0-.4-4c-1.86-1.29-5.69.16-7.3,1.39-.1.08-1.15,1.09-1.71,1.66.21-.74.43-1.48.63-2.24.56-2.2,1.06-4.44,1.57-6.67.15-.68.32-1.36.48-2,.27.14,3.53,1.85,5.23,1.95,1.51.09,3.46-.22,4.5-1.44a2.69,2.69,0,0,0-.4-4c-1.87-1.29-5.7.15-7.3,1.39-.12.09-1.64,1.55-2,1.94.35-1.5.72-3,1.14-4.44a46.2,46.2,0,0,1,2.06-5.77c.13.06,3.52,1.87,5.26,2,1.51.08,3.46-.23,4.5-1.45a2.68,2.68,0,0,0-.41-4c-1.86-1.29-5.69.15-7.29,1.39-.11.08-1.26,1.19-1.8,1.74l-.1-.08a34,34,0,0,1,3.08-5.34c.64-.93,1.3-1.79,2-2.61.6.4,3.35,2.2,4.91,2.46s3.46.16,4.63-.94a2.68,2.68,0,0,0,0-4c-1.71-1.48-5.67-.47-7.4.58-.1.06-1,.74-1.63,1.25.3-.36.61-.75.91-1.09,1.12-1.3,2.23-2.42,3.22-3.4.57-.55,1.09-1,1.58-1.49.8.08,4,.39,5.47-.08s3.14-1.46,3.67-3a2.69,2.69,0,0,0-1.81-3.56c-2.2-.53-5.25,2.2-6.31,3.93-.09.15-1.24,2.65-1.2,2.65h0c-.49.43-1,.89-1.55,1.41-1,1-2.15,2.06-3.3,3.33a49.28,49.28,0,0,0-3.54,4.3,34.94,34.94,0,0,0-3.22,5.32l0,.07c.09-.66.3-2.51.3-2.65,0-2-1.2-5.94-3.36-6.63a2.69,2.69,0,0,0-3.39,2.11c-.33,1.57.61,3.3,1.61,4.44,1.11,1.29,4.48,2.83,4.74,2.95a48,48,0,0,0-2.26,5.92c-.37,1.18-.7,2.37-1,3.58.06-.57.12-1.08.12-1.16,0-2-1.2-5.93-3.36-6.62a2.67,2.67,0,0,0-3.39,2.11c-.34,1.56.61,3.29,1.6,4.44s3.85,2.53,4.6,2.88l-.36,1.38c-.55,2.23-1.1,4.45-1.71,6.61-.21.76-.45,1.5-.68,2.25.06-.51.1-.94.1-1,0-2-1.2-5.94-3.36-6.63a2.69,2.69,0,0,0-3.39,2.11c-.33,1.57.61,3.3,1.6,4.44a17.19,17.19,0,0,0,4.47,2.82c-.26.75-.52,1.51-.81,2.23-.21.48-.38,1-.62,1.44l-.66,1.42c-.46.89-.92,1.8-1.39,2.65-.32.6-.64,1.16-1,1.73.22-.76.62-2.25.64-2.37a10.32,10.32,0,0,0-.74-5.21,2.93,2.93,0,0,0,0-.59,2.69,2.69,0,0,0-3-2.68c-2.24.3-4.11,3.94-4.47,5.93,0,.12-.11,1.42-.15,2.24,0-.48-.09-1-.15-1.46-.1-1-.24-2-.38-3-.08-.51-.17-1-.26-1.55s-.22-1-.33-1.58c-.28-1.23-.62-2.47-1-3.7.87-.1,3.94-.47,5.25-1.24s2.76-2.09,3-3.68a2.67,2.67,0,0,0-2.52-3.09c-2.27-.05-4.67,3.27-5.32,5.18,0,.12-.36,1.55-.52,2.34-.23-.75-.46-1.49-.71-2.23-.74-2.14-1.56-4.28-2.37-6.42-.25-.66-.48-1.32-.73-2,.31,0,4-.4,5.45-1.26,1.3-.76,2.76-2.09,3-3.68a2.68,2.68,0,0,0-2.53-3.09c-2.26-.05-4.66,3.27-5.32,5.18,0,.15-.5,2.2-.59,2.73-.53-1.45-1-2.89-1.5-4.34A49.16,49.16,0,0,1,93.49,429c.15,0,4-.38,5.48-1.26,1.31-.76,2.76-2.09,3-3.68A2.69,2.69,0,0,0,99.4,421c-2.27,0-4.67,3.28-5.33,5.19,0,.13-.39,1.69-.53,2.44h-.13a34.37,34.37,0,0,1-.38-6.16c0-1.13.1-2.21.2-3.26.72,0,4,0,5.45-.65s3-1.78,3.34-3.34a2.68,2.68,0,0,0-2.17-3.35c-2.25-.29-5,2.74-5.86,4.57,0,.1-.41,1.16-.67,1.94.06-.47.1-1,.16-1.41.22-1.7.53-3.25.81-4.61.17-.78.34-1.47.5-2.13.71-.36,3.54-1.86,4.51-3.07s1.82-3,1.43-4.5a2.69,2.69,0,0,0-3.47-2c-2.13.78-3.17,4.74-3.1,6.76,0,.17.43,2.9.47,2.88l0,0c-.17.62-.34,1.29-.52,2-.31,1.36-.65,2.9-.91,4.6a47.45,47.45,0,0,0-.58,5.53,35.65,35.65,0,0,0,.25,6.22s0,.05,0,.07c-.28-.6-1.13-2.25-1.21-2.37-1.12-1.69-4.27-4.29-6.46-3.68a2.68,2.68,0,0,0-1.66,3.63C84.18,427.82,85.92,428.74,87.38,429.15Z" style="fill:#92E3A9;opacity:0.30000000000000004"></path><path d="M69,444.75s.6-1.45.63-1.54c.3-1.12.23-3.45-.85-4.16a1.55,1.55,0,0,0-2.19.65,3.18,3.18,0,0,0,.22,2.69A10.87,10.87,0,0,0,69,444.75Z" style="fill:#92E3A9"></path><path d="M46.25,441.34a10.88,10.88,0,0,0,3.13.75s-.29-1.53-.33-1.63c-.36-1.09-1.7-3-3-3a1.54,1.54,0,0,0-1.46,1.75A3.24,3.24,0,0,0,46.25,441.34Z" style="fill:#92E3A9"></path><path d="M46.19,448a10.59,10.59,0,0,0,3.19-.09,26.67,26.67,0,0,0,.79,3.53c.19.67.41,1.35.64,2l-.31-.58c-.64-1-2.44-2.45-3.69-2.1a1.53,1.53,0,0,0-.94,2.07A3.17,3.17,0,0,0,48,454.42a10.27,10.27,0,0,0,3.09-.08l.27.77c.43,1.24.87,2.47,1.26,3.68.14.43.26.86.39,1.29l-.27-.51c-.64-1-2.44-2.44-3.69-2.09a1.53,1.53,0,0,0-.94,2.07,3.15,3.15,0,0,0,2.16,1.6,9.63,9.63,0,0,0,3-.06c.11.44.22.88.31,1.32.06.29.13.58.17.88s.08.59.13.88c.06.57.12,1.15.17,1.7,0,.39.06.75.09,1.12-.14-.43-.41-1.26-.44-1.33-.49-1.05-2-2.79-3.33-2.63a1.54,1.54,0,0,0-1.25,1.91,3.16,3.16,0,0,0,1.89,1.91,10.64,10.64,0,0,0,3.15.4c0,.61.08,1.2.1,1.76.08,1.55.09,2.88.09,3.94h.85c0-1.07-.06-2.42-.17-4,0-.62-.1-1.28-.16-2a18.46,18.46,0,0,0,1.86-.6,11.14,11.14,0,0,0,2.34,2c-.3.54-.6,1.05-.89,1.54-.7,1.18-1.35,2.2-1.9,3h1c.47-.76,1-1.65,1.57-2.65.3-.54.62-1.12.94-1.73a10.6,10.6,0,0,0,3.11.65,3.22,3.22,0,0,0,2.41-1.2,1.53,1.53,0,0,0-.57-2.21c-1.16-.56-3.2.58-4,1.41l-.77,1c.13-.24.26-.48.39-.74.26-.5.5-1,.77-1.56l.36-.82c.13-.27.23-.57.35-.86.25-.67.48-1.37.69-2.07a10,10,0,0,0,2.89,1.06,3.17,3.17,0,0,0,2.56-.82,1.53,1.53,0,0,0-.23-2.27c-1.06-.73-3.25.09-4.16.8-.06,0-.66.62-1,.94.12-.42.25-.84.36-1.28.32-1.25.6-2.53.89-3.8.09-.39.19-.78.28-1.17a10.4,10.4,0,0,0,3,1.12,3.23,3.23,0,0,0,2.57-.82,1.53,1.53,0,0,0-.23-2.27c-1.07-.73-3.25.09-4.17.79-.06.06-.93.89-1.14,1.11.21-.85.42-1.7.66-2.53a27.91,27.91,0,0,1,1.17-3.3,10.81,10.81,0,0,0,3,1.13,3.23,3.23,0,0,0,2.57-.82,1.53,1.53,0,0,0-.23-2.27c-1.07-.74-3.25.09-4.17.79l-1,1-.06,0a19.94,19.94,0,0,1,1.76-3c.36-.53.74-1,1.12-1.49a10.21,10.21,0,0,0,2.8,1.41,3.21,3.21,0,0,0,2.64-.54,1.54,1.54,0,0,0,0-2.28c-1-.84-3.24-.26-4.23.33l-.93.72c.18-.21.35-.43.53-.62.64-.74,1.27-1.38,1.83-1.94.33-.32.62-.6.91-.86a10.21,10.21,0,0,0,3.11,0,3.2,3.2,0,0,0,2.1-1.69,1.53,1.53,0,0,0-1-2c-1.26-.3-3,1.25-3.6,2.24,0,.08-.71,1.51-.69,1.51h0c-.28.24-.57.5-.89.8-.57.55-1.22,1.17-1.88,1.9a27.46,27.46,0,0,0-2,2.45,20.47,20.47,0,0,0-1.85,3s0,0,0,0c0-.38.17-1.43.17-1.51,0-1.16-.68-3.39-1.92-3.78a1.52,1.52,0,0,0-1.93,1.2,3.21,3.21,0,0,0,.91,2.53,10.31,10.31,0,0,0,2.71,1.68,27.8,27.8,0,0,0-1.29,3.38c-.21.67-.4,1.36-.58,2,0-.32.07-.62.07-.66,0-1.15-.69-3.38-1.92-3.78a1.53,1.53,0,0,0-1.93,1.21,3.21,3.21,0,0,0,.91,2.53,10,10,0,0,0,2.63,1.64l-.21.79c-.32,1.27-.63,2.54-1,3.77-.12.44-.26.86-.39,1.29,0-.29,0-.54,0-.58,0-1.15-.68-3.38-1.91-3.78a1.54,1.54,0,0,0-1.94,1.21,3.18,3.18,0,0,0,.92,2.53,9.69,9.69,0,0,0,2.55,1.61c-.15.43-.3.86-.47,1.27s-.21.55-.35.82-.25.55-.38.81c-.26.51-.52,1-.79,1.52-.18.34-.36.66-.55,1,.13-.43.36-1.28.37-1.35a6.07,6.07,0,0,0-.42-3c0-.11,0-.23,0-.34A1.54,1.54,0,0,0,57.51,462c-1.29.18-2.35,2.25-2.56,3.39,0,.06-.06.81-.08,1.28,0-.28,0-.55-.09-.84-.06-.56-.13-1.12-.21-1.73l-.15-.88c0-.3-.13-.6-.19-.91-.16-.7-.35-1.4-.57-2.11a10.09,10.09,0,0,0,3-.7,3.18,3.18,0,0,0,1.68-2.1,1.53,1.53,0,0,0-1.44-1.77c-1.29,0-2.66,1.87-3,3,0,.07-.21.88-.3,1.33-.13-.42-.26-.84-.4-1.27-.43-1.22-.89-2.44-1.35-3.66l-.42-1.12a10.71,10.71,0,0,0,3.11-.72,3.24,3.24,0,0,0,1.68-2.1,1.53,1.53,0,0,0-1.44-1.77c-1.29,0-2.66,1.87-3,3,0,.08-.28,1.26-.33,1.56-.31-.83-.6-1.65-.86-2.48a28.9,28.9,0,0,1-.84-3.39,10.88,10.88,0,0,0,3.13-.72,3.24,3.24,0,0,0,1.68-2.1,1.53,1.53,0,0,0-1.44-1.77c-1.29,0-2.66,1.87-3,3,0,.07-.23,1-.31,1.39h-.08a20.15,20.15,0,0,1-.21-3.51c0-.65.06-1.26.11-1.86a10.52,10.52,0,0,0,3.11-.37A3.22,3.22,0,0,0,54.55,440a1.54,1.54,0,0,0-1.24-1.91c-1.28-.17-2.85,1.56-3.34,2.61,0,.05-.24.66-.38,1.11,0-.27,0-.55.09-.81.12-1,.3-1.85.46-2.63.1-.44.19-.84.28-1.21A10.21,10.21,0,0,0,53,435.41a3.16,3.16,0,0,0,.81-2.56,1.53,1.53,0,0,0-2-1.13c-1.21.44-1.81,2.7-1.76,3.85,0,.1.24,1.66.26,1.65l0,0c-.09.36-.19.74-.29,1.16-.18.78-.38,1.66-.52,2.63a26.74,26.74,0,0,0-.33,3.15,20.43,20.43,0,0,0,.14,3.55.06.06,0,0,0,0,0l-.69-1.35c-.64-1-2.44-2.45-3.69-2.1a1.54,1.54,0,0,0-.95,2.07A3.21,3.21,0,0,0,46.19,448Z" style="fill:#92E3A9"></path><path d="M46.25,441.34a10.88,10.88,0,0,0,3.13.75s-.29-1.53-.33-1.63c-.36-1.09-1.7-3-3-3a1.54,1.54,0,0,0-1.46,1.75A3.24,3.24,0,0,0,46.25,441.34Z" style="fill:#92E3A9;opacity:0.30000000000000004"></path><path d="M69,444.75s.6-1.45.63-1.54c.3-1.12.23-3.45-.85-4.16a1.55,1.55,0,0,0-2.19.65,3.18,3.18,0,0,0,.22,2.69A10.87,10.87,0,0,0,69,444.75Z" style="fill:#92E3A9;opacity:0.30000000000000004"></path><path d="M46.19,448a10.59,10.59,0,0,0,3.19-.09,26.67,26.67,0,0,0,.79,3.53c.19.67.41,1.35.64,2l-.31-.58c-.64-1-2.44-2.45-3.69-2.1a1.53,1.53,0,0,0-.94,2.07A3.17,3.17,0,0,0,48,454.42a10.27,10.27,0,0,0,3.09-.08l.27.77c.43,1.24.87,2.47,1.26,3.68.14.43.26.86.39,1.29l-.27-.51c-.64-1-2.44-2.44-3.69-2.09a1.53,1.53,0,0,0-.94,2.07,3.15,3.15,0,0,0,2.16,1.6,9.63,9.63,0,0,0,3-.06c.11.44.22.88.31,1.32.06.29.13.58.17.88s.08.59.13.88c.06.57.12,1.15.17,1.7,0,.39.06.75.09,1.12-.14-.43-.41-1.26-.44-1.33-.49-1.05-2-2.79-3.33-2.63a1.54,1.54,0,0,0-1.25,1.91,3.16,3.16,0,0,0,1.89,1.91,10.64,10.64,0,0,0,3.15.4c0,.61.08,1.2.1,1.76.08,1.55.09,2.88.09,3.94h.85c0-1.07-.06-2.42-.17-4,0-.62-.1-1.28-.16-2a18.46,18.46,0,0,0,1.86-.6,11.14,11.14,0,0,0,2.34,2c-.3.54-.6,1.05-.89,1.54-.7,1.18-1.35,2.2-1.9,3h1c.47-.76,1-1.65,1.57-2.65.3-.54.62-1.12.94-1.73a10.6,10.6,0,0,0,3.11.65,3.22,3.22,0,0,0,2.41-1.2,1.53,1.53,0,0,0-.57-2.21c-1.16-.56-3.2.58-4,1.41l-.77,1c.13-.24.26-.48.39-.74.26-.5.5-1,.77-1.56l.36-.82c.13-.27.23-.57.35-.86.25-.67.48-1.37.69-2.07a10,10,0,0,0,2.89,1.06,3.17,3.17,0,0,0,2.56-.82,1.53,1.53,0,0,0-.23-2.27c-1.06-.73-3.25.09-4.16.8-.06,0-.66.62-1,.94.12-.42.25-.84.36-1.28.32-1.25.6-2.53.89-3.8.09-.39.19-.78.28-1.17a10.4,10.4,0,0,0,3,1.12,3.23,3.23,0,0,0,2.57-.82,1.53,1.53,0,0,0-.23-2.27c-1.07-.73-3.25.09-4.17.79-.06.06-.93.89-1.14,1.11.21-.85.42-1.7.66-2.53a27.91,27.91,0,0,1,1.17-3.3,10.81,10.81,0,0,0,3,1.13,3.23,3.23,0,0,0,2.57-.82,1.53,1.53,0,0,0-.23-2.27c-1.07-.74-3.25.09-4.17.79l-1,1-.06,0a19.94,19.94,0,0,1,1.76-3c.36-.53.74-1,1.12-1.49a10.21,10.21,0,0,0,2.8,1.41,3.21,3.21,0,0,0,2.64-.54,1.54,1.54,0,0,0,0-2.28c-1-.84-3.24-.26-4.23.33l-.93.72c.18-.21.35-.43.53-.62.64-.74,1.27-1.38,1.83-1.94.33-.32.62-.6.91-.86a10.21,10.21,0,0,0,3.11,0,3.2,3.2,0,0,0,2.1-1.69,1.53,1.53,0,0,0-1-2c-1.26-.3-3,1.25-3.6,2.24,0,.08-.71,1.51-.69,1.51h0c-.28.24-.57.5-.89.8-.57.55-1.22,1.17-1.88,1.9a27.46,27.46,0,0,0-2,2.45,20.47,20.47,0,0,0-1.85,3s0,0,0,0c0-.38.17-1.43.17-1.51,0-1.16-.68-3.39-1.92-3.78a1.52,1.52,0,0,0-1.93,1.2,3.21,3.21,0,0,0,.91,2.53,10.31,10.31,0,0,0,2.71,1.68,27.8,27.8,0,0,0-1.29,3.38c-.21.67-.4,1.36-.58,2,0-.32.07-.62.07-.66,0-1.15-.69-3.38-1.92-3.78a1.53,1.53,0,0,0-1.93,1.21,3.21,3.21,0,0,0,.91,2.53,10,10,0,0,0,2.63,1.64l-.21.79c-.32,1.27-.63,2.54-1,3.77-.12.44-.26.86-.39,1.29,0-.29,0-.54,0-.58,0-1.15-.68-3.38-1.91-3.78a1.54,1.54,0,0,0-1.94,1.21,3.18,3.18,0,0,0,.92,2.53,9.69,9.69,0,0,0,2.55,1.61c-.15.43-.3.86-.47,1.27s-.21.55-.35.82-.25.55-.38.81c-.26.51-.52,1-.79,1.52-.18.34-.36.66-.55,1,.13-.43.36-1.28.37-1.35a6.07,6.07,0,0,0-.42-3c0-.11,0-.23,0-.34A1.54,1.54,0,0,0,57.51,462c-1.29.18-2.35,2.25-2.56,3.39,0,.06-.06.81-.08,1.28,0-.28,0-.55-.09-.84-.06-.56-.13-1.12-.21-1.73l-.15-.88c0-.3-.13-.6-.19-.91-.16-.7-.35-1.4-.57-2.11a10.09,10.09,0,0,0,3-.7,3.18,3.18,0,0,0,1.68-2.1,1.53,1.53,0,0,0-1.44-1.77c-1.29,0-2.66,1.87-3,3,0,.07-.21.88-.3,1.33-.13-.42-.26-.84-.4-1.27-.43-1.22-.89-2.44-1.35-3.66l-.42-1.12a10.71,10.71,0,0,0,3.11-.72,3.24,3.24,0,0,0,1.68-2.1,1.53,1.53,0,0,0-1.44-1.77c-1.29,0-2.66,1.87-3,3,0,.08-.28,1.26-.33,1.56-.31-.83-.6-1.65-.86-2.48a28.9,28.9,0,0,1-.84-3.39,10.88,10.88,0,0,0,3.13-.72,3.24,3.24,0,0,0,1.68-2.1,1.53,1.53,0,0,0-1.44-1.77c-1.29,0-2.66,1.87-3,3,0,.07-.23,1-.31,1.39h-.08a20.15,20.15,0,0,1-.21-3.51c0-.65.06-1.26.11-1.86a10.52,10.52,0,0,0,3.11-.37A3.22,3.22,0,0,0,54.55,440a1.54,1.54,0,0,0-1.24-1.91c-1.28-.17-2.85,1.56-3.34,2.61,0,.05-.24.66-.38,1.11,0-.27,0-.55.09-.81.12-1,.3-1.85.46-2.63.1-.44.19-.84.28-1.21A10.21,10.21,0,0,0,53,435.41a3.16,3.16,0,0,0,.81-2.56,1.53,1.53,0,0,0-2-1.13c-1.21.44-1.81,2.7-1.76,3.85,0,.1.24,1.66.26,1.65l0,0c-.09.36-.19.74-.29,1.16-.18.78-.38,1.66-.52,2.63a26.74,26.74,0,0,0-.33,3.15,20.43,20.43,0,0,0,.14,3.55.06.06,0,0,0,0,0l-.69-1.35c-.64-1-2.44-2.45-3.69-2.1a1.54,1.54,0,0,0-.95,2.07A3.21,3.21,0,0,0,46.19,448Z" style="fill:#92E3A9;opacity:0.30000000000000004"></path></g><g id="freepik--drawing-text--inject-50"><path d="M82.75,178.91q0-3.12-2.7-22.3t-3.41-20.93a2.55,2.55,0,0,1,2.28-1.56q1.48,0,2.79,6.75,1.23,7.14,2.07,16.36l.46,5.26c.26,2.94.41,4.43.45,4.48l.65-5.46.39-3.37q.84-7.41,1.11-10.45c.21-2.69.32-4.53.32-5.52v-1.23a2.16,2.16,0,0,1,.52-1.37,1.5,1.5,0,0,1,1.17-.65c1.56,0,2.33.65,2.33,2v1a46,46,0,0,0,.75,8Q92.68,154,94.11,160c.6,2.29,1.21,5.08,1.81,8.37q.19-2.15,1.24-10.39,1-7.53,1.52-12.82t.49-9.9a3.45,3.45,0,0,1,.49-2.11,2.26,2.26,0,0,1,1.85-.61,2.19,2.19,0,0,1,1.39.48,1.56,1.56,0,0,1,.62,1.27,2.38,2.38,0,0,1-.65,1.49,99.59,99.59,0,0,1-.71,10.94q-.72,6.27-1.76,11.91t-1.75,11.85a99.7,99.7,0,0,0-.71,11.13,2.62,2.62,0,0,1-.49,1.66,1.76,1.76,0,0,1-1.46.62c-.48,0-1-.89-1.69-2.67a116.16,116.16,0,0,1-3-14.73l-1.17-7.6-.58-4.22q-.85,5.91-1.27,9.51c-.28,2.41-.55,5.25-.81,8.54S87,179,87,182a1.78,1.78,0,0,1-.56,1.23,1.69,1.69,0,0,1-1.26.59Q82.75,183.85,82.75,178.91Z" style="fill:#263238"></path><path d="M120.33,181.83v-.19a45.73,45.73,0,0,0-1.17-7.66q-1-4.22-2.85-10.19-1.44-4.48-2.41-8v25.57a2.6,2.6,0,0,1-.35,1.53,1.67,1.67,0,0,1-1.4.49,1.61,1.61,0,0,1-1.23-.49,1.82,1.82,0,0,1-.46-1.27v-.52l.13-19.08q.14-8.44.13-19v-8a1.4,1.4,0,0,1,.33-1.07,2.19,2.19,0,0,1,1.36-.29,7.21,7.21,0,0,1,3,.62,6.77,6.77,0,0,1,2.34,1.72,11,11,0,0,1,2.59,5.45,15.63,15.63,0,0,1,.26,3,15.44,15.44,0,0,1-.16,2.14c-.11.78-.19,1.27-.23,1.49a17.63,17.63,0,0,1-.58,2c-.31.86-.5,1.43-.59,1.69l-.78,1.81-.64,1.69a34.09,34.09,0,0,0,.81,5.91c.49,2.38,1,4.59,1.65,6.62q.65,2.15,2.34,7.14l1.88,5.71v.13a7.92,7.92,0,0,1-.19,1.89,1.22,1.22,0,0,1-1.37,1C121.91,183.59,121.11,183,120.33,181.83ZM116,150.28l1-5.58a5.33,5.33,0,0,0,.06-.91,16.18,16.18,0,0,0-.71-4.35,6.82,6.82,0,0,0-1-2,1.9,1.9,0,0,0-1.26-.87l-.14,6.49c-.12,2.9-.19,5.15-.19,6.75s0,2.51.07,3A31.54,31.54,0,0,0,116,150.28Z" style="fill:#263238"></path><path d="M128,180.92c0-1,.65-1.55,2-1.55h.78a2.58,2.58,0,0,0,.58.06.86.86,0,0,0,.75-.32,2.19,2.19,0,0,0,.23-1.17q0-5.52-.65-15.06-.58-9.93-.59-15c0-1.21,0-2.31.07-3.31l.06-3.31a27.19,27.19,0,0,0-.19-3.57,4.46,4.46,0,0,1-1.5.26c-1,0-1.49-.52-1.49-1.56a1.65,1.65,0,0,1,.94-1.36,7,7,0,0,1,2.44-.85,29,29,0,0,1,4.61-.45,1.86,1.86,0,0,1,1.33.52,1.67,1.67,0,0,1,.55,1.23,1.92,1.92,0,0,1-.42,1.24,1.34,1.34,0,0,1-1.07.51,2.93,2.93,0,0,1-.65-.06h-.52a1.29,1.29,0,0,0-.94.29,1.49,1.49,0,0,0-.3,1.07q0,6.89.85,19,.78,12.66.78,19V179a8.51,8.51,0,0,1,1.29-.07c1.82,0,2.73.76,2.73,2.27v.39L138,182.68l-.39,0c-.22,0-.65,0-1.3,0-1.47.09-2.38.13-2.73.13Q128,182.87,128,180.92Z" style="fill:#263238"></path><path d="M149.51,182.45a4.48,4.48,0,0,1-.55-2.3c0-1.43.09-3.19.26-5.26l.13-1.69.13-3.44c0-1.52-.15-4.89-.46-10.13s-.45-8.61-.45-10.13c0-.13,0-.37,0-.74s0-.94,0-1.72.07-1.93.07-3.18q0-4.74-.65-6a14.62,14.62,0,0,0-1.69.19l-1.82.13a2.44,2.44,0,0,1-1.49-.48,1.53,1.53,0,0,1-.65-1.27c0-.52.52-1,1.56-1.36a32.68,32.68,0,0,1,7.73-1.11c1.47-.08,2.35-.13,2.66-.13a2.29,2.29,0,0,1,1.43.52,1.69,1.69,0,0,1,.09,2.57,2,2,0,0,1-1.39.48l-1.17-.06a10.23,10.23,0,0,0-1.17-.07h-.65a79.62,79.62,0,0,1,.45,8l-.06,4.15c0,1.26-.06,2.67-.06,4.22,0,2.08.08,4.57.26,7.47q.31,5.38.32,7.46,0,2.47.26,5.85t.26,5.84c0,2.12-.63,3.18-1.88,3.18A1.7,1.7,0,0,1,149.51,182.45Z" style="fill:#263238"></path><path d="M161.68,180.92c0-1,.65-1.55,1.95-1.55h.78a2.58,2.58,0,0,0,.58.06.86.86,0,0,0,.75-.32,2.19,2.19,0,0,0,.23-1.17q0-5.52-.65-15.06-.58-9.93-.59-15c0-1.21,0-2.31.07-3.31l.06-3.31a27.19,27.19,0,0,0-.19-3.57,4.41,4.41,0,0,1-1.49.26q-1.5,0-1.5-1.56a1.65,1.65,0,0,1,.94-1.36,7,7,0,0,1,2.44-.85,29.07,29.07,0,0,1,4.61-.45,1.86,1.86,0,0,1,1.33.52,1.64,1.64,0,0,1,.55,1.23,1.92,1.92,0,0,1-.42,1.24,1.33,1.33,0,0,1-1.07.51,2.93,2.93,0,0,1-.65-.06h-.52a1.31,1.31,0,0,0-.94.29,1.49,1.49,0,0,0-.3,1.07q0,6.89.85,19,.78,12.66.78,19V179a8.57,8.57,0,0,1,1.3-.07c1.81,0,2.72.76,2.72,2.27v.39l-1.62,1.11-.39,0c-.22,0-.65,0-1.3,0-1.47.09-2.38.13-2.72.13Q161.67,182.87,161.68,180.92Z" style="fill:#263238"></path><path d="M190.57,170.54q-4.55-15.64-7.86-28.76v21.29c0,1.82.18,4.91.52,9.28q.47,7.16.46,9.22a1.2,1.2,0,0,1-.72,1,3.1,3.1,0,0,1-1.62.42c-.91,0-1.36-.34-1.36-1l.13-1.88c.08-1.38.13-2.29.13-2.73q0-3.43-.39-10.9t-.39-9.22v-8.31q0-2,.19-6c.18-2.3.26-4.29.26-6v-.39c0-2.17.48-3.25,1.43-3.25.56,0,1.28.95,2.14,2.86q2.14,4.67,5.46,16.74,1.88,7,4.41,18.05c0-.17.3,1.32,1,4.48l.06.33c0-4.2,0-8,.13-11.3l.13-11.3V134a1.84,1.84,0,0,1,2.08-1.62c1.17,0,1.75.84,1.75,2.53v.39a4.15,4.15,0,0,0-.39,1.88q0,4-.19,11.94t-.19,12.08V181a3.86,3.86,0,0,1-.56,2,1.56,1.56,0,0,1-1.33.94Q194.6,183.91,190.57,170.54Z" style="fill:#263238"></path><path d="M211.08,182.48a13.68,13.68,0,0,1-3.44-5.32,30.48,30.48,0,0,1-1.56-6.95,56,56,0,0,1-.45-6.88c0-.56-.07-1.53-.07-2.92v-4.8q0-2.79.2-6.69a46.64,46.64,0,0,1,1-6.75,17.17,17.17,0,0,1,2.46-5.71,8.91,8.91,0,0,1,4.35-3.51,11.51,11.51,0,0,1,3.06-.45c1.81,0,2.72.6,2.72,1.81a1.41,1.41,0,0,1-.49,1.14,1.84,1.84,0,0,1-1.26.42,3.7,3.7,0,0,1-.91-.19l-.91-.13a3.59,3.59,0,0,0-2.21.74,5.59,5.59,0,0,0-1.62,2.18,22.82,22.82,0,0,0-2,6.81,58.13,58.13,0,0,0-.78,7.92q-.13,2.93-.13,6.17v1.75c0,.61-.07,1.37-.07,2.28a62.94,62.94,0,0,0,.33,6.49,19.85,19.85,0,0,0,1.43,6.49,7.19,7.19,0,0,0,3.37,4.28,5.26,5.26,0,0,0,2.73.65,5.75,5.75,0,0,0,4.8-2.72c0-1.52-.15-3-.32-4.45a7.29,7.29,0,0,0-.78-2.95l-.29,0-.68.1-1.56.13c-1.47,0-2.21-.63-2.21-1.89a1.3,1.3,0,0,1,.65-1,4.42,4.42,0,0,1,1.75-.64,13.27,13.27,0,0,1,3.25-.46,2.36,2.36,0,0,1,2,1,4,4,0,0,1,.72,2.46,35.88,35.88,0,0,0,.64,5.84,34.08,34.08,0,0,1,.65,5.78,1.84,1.84,0,0,1-.45,1.24,1.42,1.42,0,0,1-1.1.51,2.18,2.18,0,0,1-2.21-1.36v-.06l-1.43.71a7,7,0,0,1-3.31,1.1A8.41,8.41,0,0,1,211.08,182.48Z" style="fill:#263238"></path><path d="M84,261.49a9.92,9.92,0,0,1-2.47-3.18,30.26,30.26,0,0,1-2.79-9.61c-.43-2.81-.76-6.06-1-9.74l-.07-3.44V232c0-1.12-.06-2.48-.06-4.09a63.64,63.64,0,0,1,.32-6.88,25.65,25.65,0,0,1,1.3-6.16,7,7,0,0,1,3-3.77,5.62,5.62,0,0,1,2.33-.52A6.44,6.44,0,0,1,90,213.32a16.86,16.86,0,0,1,2.92,6.81,45.94,45.94,0,0,1,1.17,8.7q.26,4.62.26,8.7v3.7c0,.74-.11,2.12-.33,4.16a39.75,39.75,0,0,0-.26,4.09v.26a20.62,20.62,0,0,0-.39,4.28,10.14,10.14,0,0,1-.78,3.77,9.37,9.37,0,0,1-2.2,3.31,4.33,4.33,0,0,1-3.25,1.56A4.89,4.89,0,0,1,84,261.49Zm5.52-4.81a23.43,23.43,0,0,0,1.13-5.22q.36-3.09.62-7c.09-1.13.13-2.58.13-4.35l-.07-6q-.12-3.51-.77-8.77a29.83,29.83,0,0,0-2-7.92A7,7,0,0,0,87,214.94a3.05,3.05,0,0,0-2.08-.91c-1.08,0-1.88.85-2.4,2.53a23.86,23.86,0,0,0-1.3,5.85c-.26,2.29-.41,4.48-.46,6.55l-.06,2.14c0,.61-.07,1.43-.07,2.47v.26a78.85,78.85,0,0,0,.91,10.71q1,8.64,3,12.27c.87,1.52,1.78,2.27,2.73,2.27S88.89,258.28,89.5,256.68Z" style="fill:#263238"></path><path d="M112.41,248.44q-4.55-15.65-7.85-28.76V241q0,2.73.52,9.29.45,7.14.45,9.21a1.21,1.21,0,0,1-.71,1,3.17,3.17,0,0,1-1.63.42c-.9,0-1.36-.34-1.36-1L102,258c.09-1.38.13-2.29.13-2.73q0-3.44-.39-10.9t-.39-9.22v-8.31q0-2,.2-6,.26-3.45.26-6v-.39c0-2.17.47-3.25,1.42-3.25.57,0,1.28.95,2.15,2.86q2.14,4.67,5.45,16.75,1.88,7,4.41,18-.06-.25,1,4.48l.07.33q0-6.3.13-11.3l.13-11.3V211.89a1.82,1.82,0,0,1,2.07-1.62c1.17,0,1.76.84,1.76,2.53v.39a4.18,4.18,0,0,0-.39,1.88q0,4-.2,12t-.19,12.07v19.8a4,4,0,0,1-.55,2,1.57,1.57,0,0,1-1.33.94Q116.44,261.81,112.41,248.44Z" style="fill:#263238"></path><path d="M143.67,260.35a4.48,4.48,0,0,1-.55-2.3c0-1.43.08-3.19.26-5.26l.13-1.69.13-3.44c0-1.52-.15-4.89-.46-10.13s-.45-8.61-.45-10.13c0-.12,0-.37,0-.74s0-.94,0-1.72.07-1.93.07-3.18q0-4.74-.65-6a14.62,14.62,0,0,0-1.69.19l-1.82.13a2.44,2.44,0,0,1-1.49-.48,1.53,1.53,0,0,1-.65-1.27c0-.52.52-1,1.56-1.36a32.67,32.67,0,0,1,7.72-1.11c1.47-.08,2.36-.13,2.67-.13a2.24,2.24,0,0,1,1.42.52,1.59,1.59,0,0,1,.65,1.3,1.62,1.62,0,0,1-.55,1.27,2,2,0,0,1-1.39.49l-1.17-.07a10.37,10.37,0,0,0-1.17-.06h-.65a79.28,79.28,0,0,1,.45,8l-.06,4.16c0,1.25-.07,2.66-.07,4.21q0,3.12.26,7.47.33,5.39.33,7.47c0,1.64.08,3.59.26,5.84s.26,4.24.26,5.84q0,3.18-1.89,3.18A1.7,1.7,0,0,1,143.67,260.35Z" style="fill:#263238"></path><path d="M167.43,261.19a2.62,2.62,0,0,1-.42-1.52q0-13.58-.52-22.92a16.19,16.19,0,0,0-2.21-.26,11.6,11.6,0,0,0-3.83.46q0,3.63.58,11,.53,7.79.52,11a2.05,2.05,0,0,1-.39,1.21,1.17,1.17,0,0,1-1,.55c-.56,0-1.08-1-1.56-3q-1-4.41-1.69-18.5-.45-9.54-.45-20.51c0-1.35-.06-3.25-.06-5.72,0-.78.36-1.17,1.1-1.17a3.55,3.55,0,0,1,2.34,1,38.56,38.56,0,0,0-.26,4.87c0,1.82.08,4,.26,6.62q.19,4.49.19,6.75v1.17a11.05,11.05,0,0,0-.06,1.24,13.41,13.41,0,0,0,.13,1.68q.39,0,1.29-.06c.61,0,1.21-.11,1.82-.19,1.43-.13,2.49-.2,3.18-.2,0-3.76,0-7.25-.13-10.45l-.13-10.84v-1.76a3.59,3.59,0,0,1,1.5.3,2.34,2.34,0,0,1,1,.74,4.48,4.48,0,0,1,.71,2.47v1.49q0,5.59.65,21.36.58,14.28.59,21.42a2.6,2.6,0,0,1-.56,1.63,1.64,1.64,0,0,1-1.33.71A1.41,1.41,0,0,1,167.43,261.19Z" style="fill:#263238"></path><path d="M180.31,260.9c-.73-.21-1.1-.82-1.1-1.82V221.37a20.84,20.84,0,0,0-.39-3.31,15.82,15.82,0,0,1-.45-3.31v-.2a14.38,14.38,0,0,1,1.62-2.34,13.89,13.89,0,0,0,2.4-.26,13.32,13.32,0,0,1,2.4-.26,3.76,3.76,0,0,1,2,.62,1.76,1.76,0,0,1,1,1.46c0,1.3-1,1.95-3,1.95h-.91a5.88,5.88,0,0,0-.9-.07,2.31,2.31,0,0,0-.72.07c0,1.47.09,3.25.26,5.32l.13,1.82.13,3.57c0,.82-.06,2.08-.19,3.77l-.13,3.63.9-.19a7.8,7.8,0,0,1,2.15-.39,1.85,1.85,0,0,1,1.3.55,1.69,1.69,0,0,1,.58,1.26,2.17,2.17,0,0,1-.49,1.4,1.47,1.47,0,0,1-1.2.62l-.78-.07h-.84a1.69,1.69,0,0,0-1.36.46v20.06l3.63-.2c2.47,0,3.7.56,3.7,1.69v.26a2.87,2.87,0,0,1-1.43,1.27,7.08,7.08,0,0,1-2,.61l-2.14.07h-2A6.31,6.31,0,0,1,180.31,260.9Z" style="fill:#263238"></path><path d="M212.77,256.81q0-3.12-2.69-22.3t-3.41-20.93a2.54,2.54,0,0,1,2.27-1.56q1.5,0,2.79,6.75,1.23,7.14,2.08,16.36l.46,5.26c.25,2.94.41,4.43.45,4.48l.65-5.46.39-3.37q.84-7.41,1.1-10.45c.22-2.69.33-4.52.33-5.52v-1.23a2.16,2.16,0,0,1,.52-1.37,1.48,1.48,0,0,1,1.16-.65q2.34,0,2.34,2v1a46,46,0,0,0,.75,8q.73,4.25,2.17,10.16c.61,2.29,1.21,5.08,1.82,8.37q.2-2.14,1.23-10.39c.7-5,1.2-9.29,1.53-12.82s.49-6.82.49-9.9a3.53,3.53,0,0,1,.48-2.11,2.27,2.27,0,0,1,1.85-.61,2.22,2.22,0,0,1,1.4.48,1.56,1.56,0,0,1,.62,1.27,2.38,2.38,0,0,1-.65,1.49,97.41,97.41,0,0,1-.72,10.94q-.7,6.27-1.75,11.91t-1.75,11.85a99.94,99.94,0,0,0-.72,11.13,2.62,2.62,0,0,1-.48,1.66,1.77,1.77,0,0,1-1.46.62c-.48,0-1-.89-1.69-2.67q-1.25-3.69-3.05-14.73l-1.17-7.6-.59-4.22q-.84,5.91-1.26,9.51c-.28,2.41-.55,5.25-.81,8.54s-.46,6.28-.46,9.35a1.77,1.77,0,0,1-.55,1.23,1.71,1.71,0,0,1-1.27.59Q212.77,261.75,212.77,256.81Z" style="fill:#263238"></path><path d="M252.08,260.45a1.55,1.55,0,0,1-.49-1.3v-8.5a9.09,9.09,0,0,0-3.18-1A34,34,0,0,0,244,249a10.74,10.74,0,0,0-1,3.31l-.26,1.3c0,.3-.17,1-.39,2a23.4,23.4,0,0,1-.72,2.7,9.46,9.46,0,0,1-.77,1.78c-1.65,0-2.6-.43-2.86-1.3q.72-1,1.62-6.1l2.14-11.88q1.44-8.43,2.63-14.41a82.52,82.52,0,0,1,2.57-10c1-3,2-4.48,2.85-4.48a3.54,3.54,0,0,1,2.08.52q0,2.61,1.24,12.53a122.71,122.71,0,0,1,1.29,13.31,95.72,95.72,0,0,0,.72,9.87q.65,6.56.65,10.45a1.93,1.93,0,0,1-2.15,2.21A2.41,2.41,0,0,1,252.08,260.45Zm-.55-13.76q-.19-2.87-.65-7.08-1.5-14.67-1.5-18v-.52q-.65.64-1.78,5.87t-2.11,11.2a77.69,77.69,0,0,0-1,7.92,20.91,20.91,0,0,0,5.78.78A6.15,6.15,0,0,0,251.53,246.69Z" style="fill:#263238"></path><path d="M264.93,260.93a1.91,1.91,0,0,1-.68-1.46,5.06,5.06,0,0,1,.26-1.42,7.09,7.09,0,0,0,.19-1.37q0-5.77-.64-22.2-.66-14-.65-22.14a1.14,1.14,0,0,1,.45-.94,1.76,1.76,0,0,1,1.1-.35,1.93,1.93,0,0,1,1.37.55,1.76,1.76,0,0,1,.58,1.33q0,3.88.39,11.68.33,8.64.33,11.69l.06.78v1.56q.19,5.64.2,16.87v1.69h5c.91.65,1.37,1.3,1.37,1.95a1.84,1.84,0,0,1-.49,1.27,1.49,1.49,0,0,1-1.14.55,4.2,4.2,0,0,1-.71-.13l-.26-.07a7.32,7.32,0,0,1-1.23.07h-1.11a6.41,6.41,0,0,0-1-.07,2.36,2.36,0,0,1-3.35.16Z" style="fill:#263238"></path><path d="M281.16,260.93a1.91,1.91,0,0,1-.68-1.46,5.06,5.06,0,0,1,.26-1.42,7.09,7.09,0,0,0,.19-1.37q0-5.77-.65-22.2-.64-14-.64-22.14a1.14,1.14,0,0,1,.45-.94,1.76,1.76,0,0,1,1.1-.35,1.93,1.93,0,0,1,1.37.55,1.76,1.76,0,0,1,.58,1.33q0,3.88.39,11.68.33,8.64.33,11.69l.06.78v1.56q.19,5.64.19,16.87v1.69h5c.91.65,1.37,1.3,1.37,1.95a1.89,1.89,0,0,1-.49,1.27,1.5,1.5,0,0,1-1.14.55,4.2,4.2,0,0,1-.71-.13l-.26-.07a7.32,7.32,0,0,1-1.23.07h-1.11a6.46,6.46,0,0,0-1-.07,2.35,2.35,0,0,1-3.34.16Z" style="fill:#263238"></path></g><g id="freepik--Wall--inject-50"><g style="opacity:0.30000000000000004"><rect x="360.99" y="86.19" width="1" height="11.78"></rect><rect x="360.99" y="122.19" width="1" height="11.78"></rect><rect x="414.01" y="122.19" width="1" height="11.78"></rect><polygon points="386.21 114.34 385.21 114.34 385.21 101.09 339.23 101.09 339.23 100.09 386.21 100.09 386.21 114.34"></polygon><polygon points="386.21 151.65 385.21 151.65 385.21 138.41 339.23 138.41 339.23 137.41 386.21 137.41 386.21 151.65"></polygon><polygon points="369.35 117.46 338.73 117.46 338.73 111.06 339.73 111.06 339.73 116.46 369.35 116.46 369.35 117.46"></polygon><rect x="392.26" y="117.11" width="45.17" height="1"></rect><polygon points="438.58 151 437.58 151 437.58 139.71 395.53 139.71 395.53 138.71 438.58 138.71 438.58 151"></polygon><rect x="368.04" y="155.08" width="40.59" height="1"></rect><rect x="256.25" y="67.93" width="1" height="11.78"></rect><rect x="256.25" y="99.94" width="1" height="11.78"></rect><rect x="309.27" y="99.94" width="1" height="11.78"></rect><polygon points="281.47 96.08 280.47 96.08 280.47 82.83 234.49 82.83 234.49 81.83 281.47 81.83 281.47 96.08"></polygon><polygon points="281.47 129.4 280.47 129.4 280.47 116.15 234.49 116.15 234.49 115.15 281.47 115.15 281.47 129.4"></polygon><polygon points="264.61 99.2 233.99 99.2 233.99 92.81 234.99 92.81 234.99 98.2 264.61 98.2 264.61 99.2"></polygon><rect x="287.52" y="98.85" width="45.17" height="1"></rect><polygon points="333.84 128.74 332.84 128.74 332.84 117.46 290.79 117.46 290.79 116.46 333.84 116.46 333.84 128.74"></polygon><rect x="263.3" y="132.82" width="40.59" height="1"></rect><rect x="256.25" y="326.5" width="1" height="11.78"></rect><rect x="256.25" y="358.5" width="1" height="11.78"></rect><rect x="309.27" y="358.5" width="1" height="11.78"></rect><polygon points="281.47 354.65 280.47 354.65 280.47 341.4 234.49 341.4 234.49 340.4 281.47 340.4 281.47 354.65"></polygon><polygon points="281.47 387.96 280.47 387.96 280.47 374.71 234.49 374.71 234.49 373.71 281.47 373.71 281.47 387.96"></polygon><polygon points="264.61 357.77 233.99 357.77 233.99 351.38 234.99 351.38 234.99 356.77 264.61 356.77 264.61 357.77"></polygon><rect x="287.52" y="357.42" width="45.17" height="1"></rect><polygon points="333.84 387.31 332.84 387.31 332.84 376.02 290.79 376.02 290.79 375.02 333.84 375.02 333.84 387.31"></polygon><rect x="263.3" y="391.39" width="40.59" height="1"></rect><rect x="154.16" y="326.5" width="1" height="11.78"></rect><rect x="154.16" y="358.5" width="1" height="11.78"></rect><rect x="207.19" y="358.5" width="1" height="11.78"></rect><polygon points="179.38 354.65 178.38 354.65 178.38 341.4 132.4 341.4 132.4 340.4 179.38 340.4 179.38 354.65"></polygon><polygon points="179.38 387.96 178.38 387.96 178.38 374.71 132.4 374.71 132.4 373.71 179.38 373.71 179.38 387.96"></polygon><polygon points="162.52 357.77 131.9 357.77 131.9 351.38 132.9 351.38 132.9 356.77 162.52 356.77 162.52 357.77"></polygon><rect x="185.43" y="357.42" width="45.17" height="1"></rect><polygon points="231.75 387.31 230.75 387.31 230.75 376.02 188.7 376.02 188.7 375.02 231.75 375.02 231.75 387.31"></polygon><rect x="161.21" y="391.39" width="40.59" height="1"></rect><rect x="396.72" y="326.5" width="1" height="11.78"></rect><rect x="396.72" y="358.5" width="1" height="11.78"></rect><rect x="449.74" y="358.5" width="1" height="11.78"></rect><polygon points="421.94 354.65 420.94 354.65 420.94 341.4 374.96 341.4 374.96 340.4 421.94 340.4 421.94 354.65"></polygon><polygon points="421.94 387.96 420.94 387.96 420.94 374.71 374.96 374.71 374.96 373.71 421.94 373.71 421.94 387.96"></polygon><polygon points="405.07 357.77 374.46 357.77 374.46 351.38 375.46 351.38 375.46 356.77 405.07 356.77 405.07 357.77"></polygon><rect x="427.99" y="357.42" width="45.17" height="1"></rect><polygon points="474.31 387.31 473.31 387.31 473.31 376.02 431.26 376.02 431.26 375.02 474.31 375.02 474.31 387.31"></polygon><rect x="403.76" y="391.39" width="40.59" height="1"></rect><rect x="396.72" y="394.88" width="1" height="11.78"></rect><rect x="396.72" y="426.89" width="1" height="11.78"></rect><rect x="449.74" y="426.89" width="1" height="11.78"></rect><polygon points="421.94 423.03 420.94 423.03 420.94 409.78 374.96 409.78 374.96 408.78 421.94 408.78 421.94 423.03"></polygon><polygon points="421.94 456.34 420.94 456.34 420.94 443.1 374.96 443.1 374.96 442.1 421.94 442.1 421.94 456.34"></polygon><polygon points="405.07 426.15 374.46 426.15 374.46 419.76 375.46 419.76 375.46 425.15 405.07 425.15 405.07 426.15"></polygon><rect x="427.99" y="425.8" width="45.17" height="1"></rect><polygon points="474.31 455.69 473.31 455.69 473.31 444.41 431.26 444.41 431.26 443.41 474.31 443.41 474.31 455.69"></polygon><rect x="403.76" y="459.77" width="40.59" height="1"></rect><rect x="56.24" y="243.87" width="1" height="11.78"></rect><rect x="56.24" y="275.88" width="1" height="11.78"></rect><rect x="109.26" y="275.88" width="1" height="11.78"></rect><polygon points="81.46 272.02 80.46 272.02 80.46 258.77 34.48 258.77 34.48 257.77 81.46 257.77 81.46 272.02"></polygon><polygon points="81.46 305.33 80.46 305.33 80.46 292.09 34.48 292.09 34.48 291.09 81.46 291.09 81.46 305.33"></polygon><polygon points="64.59 275.14 33.98 275.14 33.98 268.75 34.98 268.75 34.98 274.14 64.59 274.14 64.59 275.14"></polygon><rect x="87.5" y="274.79" width="45.17" height="1"></rect><polygon points="133.83 304.68 132.83 304.68 132.83 293.4 90.78 293.4 90.78 292.4 133.83 292.4 133.83 304.68"></polygon><rect x="63.28" y="308.76" width="40.59" height="1"></rect><rect x="397.72" y="208.76" width="1" height="11.78"></rect><rect x="397.72" y="240.77" width="1" height="11.78"></rect><rect x="450.75" y="240.77" width="1" height="11.78"></rect><polygon points="422.94 236.91 421.94 236.91 421.94 223.66 375.96 223.66 375.96 222.66 422.94 222.66 422.94 236.91"></polygon><polygon points="422.94 270.23 421.94 270.23 421.94 256.98 375.96 256.98 375.96 255.98 422.94 255.98 422.94 270.23"></polygon><polygon points="406.07 240.03 375.46 240.03 375.46 233.64 376.46 233.64 376.46 239.03 406.07 239.03 406.07 240.03"></polygon><rect x="428.99" y="239.69" width="45.17" height="1"></rect><polygon points="475.31 269.57 474.31 269.57 474.31 258.29 432.26 258.29 432.26 257.29 475.31 257.29 475.31 269.57"></polygon><rect x="404.77" y="273.65" width="40.59" height="1"></rect><rect x="56.24" y="22.11" width="1" height="11.78"></rect><rect x="56.24" y="54.12" width="1" height="11.78"></rect><rect x="109.26" y="54.12" width="1" height="11.78"></rect><polygon points="81.46 50.26 80.46 50.26 80.46 37.01 34.48 37.01 34.48 36.01 81.46 36.01 81.46 50.26"></polygon><polygon points="81.46 83.57 80.46 83.57 80.46 70.33 34.48 70.33 34.48 69.33 81.46 69.33 81.46 83.57"></polygon><polygon points="64.59 53.38 33.98 53.38 33.98 46.99 34.98 46.99 34.98 52.38 64.59 52.38 64.59 53.38"></polygon><rect x="87.5" y="53.03" width="45.17" height="1"></rect><polygon points="133.83 82.92 132.83 82.92 132.83 71.64 90.78 71.64 90.78 70.64 133.83 70.64 133.83 82.92"></polygon><rect x="63.28" y="87" width="40.59" height="1"></rect><rect x="185.55" y="224.32" width="1" height="11.78"></rect><rect x="185.55" y="260.32" width="1" height="11.78"></rect><rect x="238.57" y="260.32" width="1" height="11.78"></rect><polygon points="210.77 252.47 209.77 252.47 209.77 239.22 163.79 239.22 163.79 238.22 210.77 238.22 210.77 252.47"></polygon><polygon points="210.77 289.78 209.77 289.78 209.77 276.53 163.79 276.53 163.79 275.53 210.77 275.53 210.77 289.78"></polygon><polygon points="193.9 255.58 163.29 255.58 163.29 249.19 164.29 249.19 164.29 254.58 193.9 254.58 193.9 255.58"></polygon><rect x="216.82" y="255.24" width="45.17" height="1"></rect><polygon points="263.14 289.12 262.14 289.12 262.14 277.84 220.09 277.84 220.09 276.84 263.14 276.84 263.14 289.12"></polygon><rect x="192.6" y="293.21" width="40.59" height="1"></rect></g></g><g id="freepik--Character--inject-50"><rect x="281.89" y="219.8" width="2.55" height="1.6" style="fill:#fff"></rect><path d="M285,221.89H281.4V219.3H285Zm-2.55-1H284v-.59H282.4Z" style="fill:#263238"></path><rect x="278.43" y="221.63" width="10.3" height="19.65" rx="1.87" style="fill:#fff"></rect><path d="M286.86,241.78H280.3a2.38,2.38,0,0,1-2.37-2.37V223.5a2.38,2.38,0,0,1,2.37-2.37h6.56a2.38,2.38,0,0,1,2.37,2.37v15.91A2.38,2.38,0,0,1,286.86,241.78Zm-6.56-19.65a1.38,1.38,0,0,0-1.37,1.37v15.91a1.38,1.38,0,0,0,1.37,1.37h6.56a1.37,1.37,0,0,0,1.37-1.37V223.5a1.37,1.37,0,0,0-1.37-1.37Z" style="fill:#263238"></path><path d="M290.53,232.5s.87-3.7.59-4.68a74.74,74.74,0,0,0-3.5-8.66,2.41,2.41,0,0,0-3.35-.28c-.7.84.14,1.26.56,1.4s.84,1.11.84,1.11l-.28,2.66s-2.38-2.38-3.5-2.66-3.35.56-3.49,1.4,3.22,1.26,3.22,1.26l.14,2.65s-4.34.28-4.76.7-1.95,1.82-1,2.38,2.79-.14,2.79-.14l1.12,1.81s-2.8.56-2.8,1.26-.41,2.38.14,2.66,2.1-1.4,2.1-1.4l.28,2.1.11,1.44S287,232.14,290.53,232.5Z" style="fill:#fff"></path><path d="M279.34,238.45l-.18-2.35L279,235c-.68.61-1.42,1.05-2,.78-.72-.36-.59-1.45-.48-2.42a6.75,6.75,0,0,0,.06-.68c0-.65.84-1.18,2.5-1.59l-.54-.88a4,4,0,0,1-2.82,0,1,1,0,0,1-.56-.8c-.1-.74.58-1.53,1.33-2.27l.1-.09c.35-.35,1.89-.62,4.58-.81l-.09-1.75c-.91-.14-2.58-.48-3.06-1.13a.81.81,0,0,1-.17-.65,1.67,1.67,0,0,1,.84-1.07,4.76,4.76,0,0,1,3.27-.73,9.81,9.81,0,0,1,3,2.08l.16-1.51a2,2,0,0,0-.5-.73,1.69,1.69,0,0,1-1.12-1,1.3,1.3,0,0,1,.35-1.21,2.37,2.37,0,0,1,1.95-.73,2.83,2.83,0,0,1,2.19,1c.77,1.08,3.31,7.93,3.57,8.81.3,1-.43,4.29-.58,4.93l-.1.43-.44,0c-3.27-.32-10.34,4.87-10.41,4.92Zm.39-5.61.47,3.75c1.87-1.31,6.85-4.57,9.94-4.61a15.11,15.11,0,0,0,.5-4,75.15,75.15,0,0,0-3.42-8.51,1.87,1.87,0,0,0-1.41-.62,1.48,1.48,0,0,0-1.16.37.58.58,0,0,0-.15.29c0,.07.19.21.49.31.57.19,1,1,1.14,1.4l.05.12-.4,3.82-.75-.74a12.37,12.37,0,0,0-3.26-2.52,3.87,3.87,0,0,0-2.47.59,1.25,1.25,0,0,0-.37.34,7.78,7.78,0,0,0,2.75.74l.41.06.19,3.56-.49,0a22,22,0,0,0-4.47.59l-.07.07c-.95.93-1.06,1.29-1,1.43a3.47,3.47,0,0,0,2.43-.12L279,229l1.71,2.78-.7.14a6.46,6.46,0,0,0-2.42.87,4.06,4.06,0,0,1,0,.7,5.32,5.32,0,0,0-.06,1.36,5.91,5.91,0,0,0,1.49-1.24Z" style="fill:#263238"></path><path d="M317.79,468.21a20.23,20.23,0,0,0-3.56,3.28c-1.91,2.19-1.64,2.46-.82,3.83s7.66,3,11.21,3.83,9,0,10.12-.82.27-9,.27-9Z" style="fill:#fff"></path><path d="M328.07,480a15.92,15.92,0,0,1-3.56-.35c-7.4-1.7-10.84-2.92-11.53-4.06l-.07-.12c-.93-1.54-1-2.12.95-4.29a20.76,20.76,0,0,1,3.65-3.37l.14-.09,17.82,1.13,0,.42c.26,2.55.72,8.58-.47,9.48C334.16,479.39,331.07,480,328.07,480Zm-10.14-11.26a20.81,20.81,0,0,0-3.32,3.1c-1.61,1.84-1.54,2-.85,3.11l.08.13c.35.57,2.51,1.66,10.9,3.6,3.44.8,8.75,0,9.7-.74.49-.48.45-4.51.12-8.15Z" style="fill:#263238"></path><path d="M388.82,468.21a20.23,20.23,0,0,1,3.56,3.28c1.91,2.19,1.64,2.46.82,3.83s-7.66,3-11.21,3.83-9,0-10.12-.82-.27-9-.27-9Z" style="fill:#fff"></path><path d="M378.55,480c-3,0-6.1-.59-7-1.25-1.19-.9-.73-6.93-.47-9.48l0-.42L389,467.7l.14.09a21,21,0,0,1,3.66,3.37c1.89,2.17,1.87,2.75.95,4.29l-.08.12c-.68,1.14-4.13,2.36-11.53,4.06A15.89,15.89,0,0,1,378.55,480Zm-6.5-10.21c-.33,3.64-.37,7.67.13,8.16.94.71,6.25,1.52,9.7.73,8.38-1.94,10.55-3,10.89-3.6l.08-.13c.69-1.15.76-1.27-.85-3.11a20.81,20.81,0,0,0-3.32-3.1Z" style="fill:#263238"></path><path d="M326.55,338.49s-4.66,13.78-4.93,23.9,2.18,53.86,1.36,56.05-2.46,12-4.1,18.87-.55,19.69-.55,19.69-1.91,1.91-1.91,3.83a52,52,0,0,0,1.37,7.38s6.56,1.64,9.29,2.19,7.93-1.1,7.93-1.1l1.64-6s3-3,3.29-5.47-.82-5.2-.82-6.84,9.84-52.23,10.11-53.05,2.74-21.87,3.56-22.14,1.64,2.46,1.64,2.46,3,24.06,3.55,25.7,7.11,25.7,8.48,30.63,3.28,18.32,3.28,18.32-2.73,1.36-1.91,3.82a25.05,25.05,0,0,1,1.36,5.47c0,.82,1.86,7.71,1.86,7.71a85,85,0,0,1,8.53.5,17.37,17.37,0,0,0,9.79-1.88s1.43-9.34.88-11.25a48.76,48.76,0,0,0-3-6.84c-1.09-2.18-2.73-1.09-1.91-4.64s-1.92-53.87-1.92-53.87-.27-28.71,0-32.81S381.12,340,381.12,340Z" style="fill:#263238"></path><path d="M328.38,471a7.5,7.5,0,0,1-1.39-.12c-2.72-.55-9.26-2.18-9.32-2.2l-.29-.07-.08-.29a52.38,52.38,0,0,1-1.38-7.5,6.77,6.77,0,0,1,1.9-4c-.15-1.8-1-13.2.57-19.63.76-3.12,1.51-6.91,2.18-10.26.8-4,1.49-7.44,1.94-8.66s-.14-15.28-.62-27.77c-.44-11.53-.9-23.44-.77-28.13.27-10.07,4.91-23.91,4.95-24l.12-.35,55.35,1.5.07.41c.11.61,2.58,15.14,2.3,19.25s0,32.49,0,32.77c.11,2,2.73,50.41,1.9,54-.45,2-.14,2.2.48,2.68a4.46,4.46,0,0,1,1.4,1.63,48.33,48.33,0,0,1,3,6.92c.56,2-.71,10.49-.86,11.46l0,.23-.2.12a17.58,17.58,0,0,1-10.09,1.95c-5.64-.53-8.45-.49-8.48-.49h-.39l-.1-.38c-.31-1.16-1.88-7-1.88-7.84a25.55,25.55,0,0,0-1.34-5.31,3.69,3.69,0,0,1,1.85-4.25c-.31-2.12-2-13.52-3.22-17.92-.4-1.44-1.25-4.54-2.26-8.22-2.46-9-5.83-21.24-6.21-22.38-.56-1.67-3.46-24.82-3.58-25.8a6.78,6.78,0,0,0-.9-1.92c-.6,1.83-1.84,11-2.52,16.13-.52,3.91-.71,5.3-.8,5.57-.65,2.22-10.08,51.66-10.09,52.89a13,13,0,0,0,.35,2.29,14.58,14.58,0,0,1,.46,4.6c-.26,2.38-2.79,5.12-3.33,5.67l-1.68,6.16-.26.08A27.16,27.16,0,0,1,328.38,471ZM318.2,467.8c1.3.32,6.62,1.63,9,2.11s6.36-.69,7.42-1l1.61-5.87.09-.1s2.89-2.91,3.14-5.17a14.44,14.44,0,0,0-.45-4.29,13.41,13.41,0,0,1-.37-2.49c0-2,10-52.9,10.14-53.2s.41-2.76.76-5.39c2.15-16.08,2.53-16.89,3.11-17.08a.89.89,0,0,1,.71.07c.82.42,1.41,2.19,1.57,2.72.85,6.76,3.11,24.38,3.55,25.69s3.76,13.46,6.22,22.43c1,3.69,1.86,6.78,2.26,8.22,1.36,4.9,3.22,17.84,3.3,18.39l.05.35-.33.16c-.09.05-2.33,1.21-1.66,3.23a24.71,24.71,0,0,1,1.39,5.62c0,.47.88,4,1.75,7.21.95,0,3.63.06,8.19.5a17.33,17.33,0,0,0,9.29-1.7c.4-2.74,1.26-9.35.85-10.79a47.46,47.46,0,0,0-3-6.75,3.4,3.4,0,0,0-1.11-1.29c-.9-.69-1.4-1.29-.84-3.7.64-2.75-1-36.35-1.93-53.72,0-1.2-.27-28.8,0-32.88.25-3.62-1.81-16.19-2.22-18.61L326.9,339c-.71,2.2-4.54,14.37-4.78,23.4-.13,4.65.33,16.55.77,28.06.65,16.73,1,27,.56,28.16s-1.11,4.56-1.9,8.51c-.67,3.35-1.43,7.15-2.18,10.3-1.61,6.67-.55,19.4-.54,19.53l0,.23-.16.16s-1.77,1.79-1.77,3.48A47.41,47.41,0,0,0,318.2,467.8Z" style="fill:#263238"></path><path d="M358.36,377c-7.47-5-17.54-4.79-17.64-4.79l0-1c.43,0,10.5-.2,18.22,4.95Z" style="fill:#fff"></path><path d="M357,212.08s-8.91,5-10.58,7.61-1.86,7.61-1.86,8.91.74,10.39.74,10.39l-1.3,3.16s-2,1.48-1.85,3.15a6.91,6.91,0,0,0,1.85,3.34s-11.88,1.12-15.22,2.42-20.23,8.35-20.23,8.35-5.75.19-6.87.37-1.85-.37-2.78-1.67a30.48,30.48,0,0,1-2.23-4.64s.19-5.2-.56-6.87-1.85-3.9-1.85-3.9-1.67-5.38-2-6.31-1.68-3.89-1.68-3.89-1.67-1.12-6.12,1.11-4.64,3.9-4.64,3.9l1.3,5.94a130.72,130.72,0,0,0-2,13.36c-.56,6.31,4.82,16.34,12.8,18.75s21.35,5,25.81,5,5,1.67,5,1.67,2.78,23.21,2.78,24.32S323,322.89,324,326.61a14.32,14.32,0,0,0,2.78,5.75l-.18,6.13L381.12,340l1.67-6.5s2.41-4.82,3.34-6.12,2-7.06,2-7.06,8.73-5,12.25-7.61,4.27-7.42,4.27-8.91-3.52-16.33-6.87-27.1-5.19-14.66-9.65-18.74-13.18-7.8-13.73-8,.74-2,.55-3.15a4.9,4.9,0,0,0-.93-2s4.46-4.83,4.83-9.84-3-18.56-5.38-21.53S370,210,366.83,210,357,212.08,357,212.08Z" style="fill:#92E3A9"></path><path d="M381.5,340.48,326,339l.2-6.43a15.11,15.11,0,0,1-2.77-5.81c-.72-2.91.48-12.27,1.13-17.31.18-1.41.34-2.62.34-2.86,0-.89-2-17.68-2.77-24.18-.11-.18-.91-1.31-4.52-1.31-4.52,0-17.86-2.59-25.95-5s-13.76-12.53-13.16-19.27a130.85,130.85,0,0,1,2-13.32l-1.3-5.92v-.08c0-.2.35-2,4.92-4.29s6.43-1.21,6.62-1.08l.12.08.06.14c.06.12,1.31,3,1.68,3.91s2,6.11,2.05,6.35h0s1.11,2.2,1.84,3.84.63,6.21.6,7a29.41,29.41,0,0,0,2.13,4.44c.89,1.24,1.47,1.6,2.3,1.47,1.07-.18,6.07-.35,6.84-.38,1.3-.54,17-7.08,20.16-8.32,2.84-1.1,11.48-2.05,14.4-2.35a6.13,6.13,0,0,1-1.35-2.88c-.19-1.7,1.48-3.16,1.94-3.53l1.21-2.92c-.1-1.12-.74-9.07-.74-10.31,0-.63.06-6.26,1.94-9.18,1.72-2.68,10.38-7.57,10.75-7.78l.1,0c.28-.09,6.79-2.06,10-2.06s4.56.43,7.07,3.52,5.87,16.71,5.49,21.89c-.33,4.46-3.7,8.68-4.69,9.83a5.5,5.5,0,0,1,.79,1.93,4.58,4.58,0,0,1-.44,2.16c-.08.22-.18.5-.23.68,1.55.62,9.48,4.15,13.69,8,4.67,4.28,6.54,8.49,9.79,19,3.36,10.82,6.89,25.7,6.89,27.24s-.8,6.61-4.47,9.32c-3.26,2.4-10.75,6.75-12.1,7.52-.24,1.19-1.2,5.79-2.08,7s-3,5.51-3.28,6ZM327.06,338l53.67,1.46,1.61-6.21c.1-.2,2.44-4.88,3.38-6.19.71-1,1.66-5.29,2-6.86l0-.22.2-.12c.09-.05,8.74-5,12.21-7.58s4.06-7.08,4.06-8.51-3.4-15.86-6.84-26.95-5.29-14.65-9.52-18.53-12.92-7.66-13.55-7.87a.73.73,0,0,1-.41-.36c-.18-.39,0-.87.24-1.54a4,4,0,0,0,.39-1.65,4.53,4.53,0,0,0-.83-1.81l-.26-.34.29-.31s4.34-4.76,4.69-9.54-3-18.37-5.27-21.18-3.27-3.15-6.29-3.15-9,1.81-9.64,2c-.7.4-8.84,5.05-10.36,7.42-1.41,2.18-1.78,6.46-1.78,8.64,0,1.26.74,10.26.74,10.35v.12l-1.4,3.4-.11.08c-.5.37-1.78,1.57-1.66,2.7a6.47,6.47,0,0,0,1.72,3l.75.75-1.06.1c-.12,0-11.85,1.12-15.08,2.38s-20.06,8.28-20.23,8.35l-.17,0c-2,.06-5.95.22-6.81.37-1.43.24-2.34-.58-3.27-1.88a31.19,31.19,0,0,1-2.29-4.75l0-.09v-.11c0-1.41.06-5.36-.51-6.64-.73-1.64-1.84-3.86-1.85-3.88s-1.7-5.45-2.06-6.35-1.31-3.07-1.59-3.71c-.41-.16-2.06-.54-5.52,1.19s-4.24,3.15-4.35,3.46l1.3,5.93,0,.1a131.39,131.39,0,0,0-2,13.31c-.56,6.37,4.87,15.93,12.46,18.22,7.87,2.38,21.29,5,25.66,5,4.68,0,5.41,1.81,5.48,2l0,.1c.12.95,2.79,23.25,2.79,24.38,0,.29-.11,1.17-.34,3-.6,4.61-1.84,14.21-1.16,16.94A13.81,13.81,0,0,0,327.1,332l.14.15Z" style="fill:#263238"></path><path d="M350.41,243.45l-.27-1A78.08,78.08,0,0,1,364,239.79c7.28-.53,9.8-4.19,9.83-4.23l.83.55c-.11.17-2.83,4.11-10.59,4.68A75.65,75.65,0,0,0,350.41,243.45Z" style="fill:#263238"></path><path d="M346.93,244.48l-.31-.95s.67-.22,1.8-.55l.28,1C347.6,244.26,346.94,244.48,346.93,244.48Z" style="fill:#263238"></path><path d="M361.07,247.38c-.62,0-1.26,0-1.9-.09l.09-1c7.17.72,13.74-3.23,13.8-3.27l.52.85A26.42,26.42,0,0,1,361.07,247.38Z" style="fill:#263238"></path><path d="M345.59,239.4l-.59-.81a13,13,0,0,0,4.44-9.11l1,.09A13.83,13.83,0,0,1,345.59,239.4Z" style="fill:#263238"></path><path d="M370.19,248.8l-.13-1a28.9,28.9,0,0,0,3.14-.58l.24,1A29,29,0,0,1,370.19,248.8Z" style="fill:#263238"></path><path d="M364,249.17a96.94,96.94,0,0,1-17.68-1.89l.21-1a91.87,91.87,0,0,0,19.6,1.83l0,1C365.43,249.16,364.7,249.17,364,249.17Z" style="fill:#263238"></path><path d="M310.8,277.73l-.06-1a13,13,0,0,0,4-1.15l.4.92A13.84,13.84,0,0,1,310.8,277.73Z" style="fill:#263238"></path><path d="M317.3,275.39l-.5-.87c.56-.32,1.12-.67,1.67-1,4.47-3,8.14-11.58,8.17-11.67l.92.4c-.15.36-3.82,8.89-8.53,12.09C318.46,274.69,317.88,275.05,317.3,275.39Z" style="fill:#263238"></path><path d="M323.58,274.22l-.75-.67c3.25-3.6,6.38-11.46,6.41-11.54l.93.37C330,262.71,326.94,270.49,323.58,274.22Z" style="fill:#263238"></path><path d="M291.74,267.58l-.93-.37a12.25,12.25,0,0,1,1.35-2.47l.82.58A10.75,10.75,0,0,0,291.74,267.58Z" style="fill:#263238"></path><path d="M295.68,262.64l-.57-.82a15.15,15.15,0,0,1,6.51-2.54l.1,1A14.11,14.11,0,0,0,295.68,262.64Z" style="fill:#263238"></path><path d="M292.84,261.86l-.9-.44a7.54,7.54,0,0,1,5.2-3.8l.16,1A6.69,6.69,0,0,0,292.84,261.86Z" style="fill:#263238"></path><path d="M282.82,244.41l-.9-.44c0-.06,3.25-6.51,10.1-3.77l-.37.93C285.67,238.74,282.93,244.18,282.82,244.41Z" style="fill:#263238"></path><path d="M388.67,320.29h-1v-21.9a185.13,185.13,0,0,0-1.85-22.94l1-.15a186.29,186.29,0,0,1,1.86,23.09Z" style="fill:#263238"></path><path d="M389,294.81l-1-.26s.56-2.05,1.86-6.51c.54-1.84,1-6.24,1.43-12.71l1,.06c-.41,6.64-.9,11-1.47,12.93C389.58,292.77,389,294.81,389,294.81Z" style="fill:#263238"></path><path d="M392.61,270.55l-1-.05c.1-2.09.15-3.49.15-3.5l1,0S392.71,268.44,392.61,270.55Z" style="fill:#263238"></path><path d="M396.14,306.87a51.21,51.21,0,0,1-7.89-.57l.21-1a56.58,56.58,0,0,0,7.71.54Z" style="fill:#263238"></path><path d="M398.52,309.78l-.06-1a20.92,20.92,0,0,0,2.43-.3l.18,1A20.9,20.9,0,0,1,398.52,309.78Z" style="fill:#263238"></path><path d="M394.83,309.64a11.5,11.5,0,0,1-4.92-1.75l.6-.8a10.83,10.83,0,0,0,4.47,1.56Z" style="fill:#263238"></path><path d="M342.11,320.84l-.69-.72a23.35,23.35,0,0,0,2.38-2.67l.79.61A24.43,24.43,0,0,1,342.11,320.84Z" style="fill:#263238"></path><path d="M346.54,315.3l-.84-.54c7.91-12.1,15.38-34.49,15.45-34.72l1,.32C362,280.58,354.52,303.1,346.54,315.3Z" style="fill:#263238"></path><path d="M329.26,323.29l-.6-.8c4.89-3.61,13.16-16.08,13.25-16.21l.83.55C342.4,307.35,334.28,319.57,329.26,323.29Z" style="fill:#263238"></path><path d="M379.83,332.78a6.22,6.22,0,0,1-1.22-.11l-.85-.18c-2.34-.49-4.56-.95-13-1.11-5-.11-10.92.1-16.69.3l-2.79.1,0-1,2.8-.1c5.78-.2,11.75-.4,16.74-.3,8.53.16,10.78.63,13.17,1.13l.84.17a4.07,4.07,0,0,0,3-.36,3.37,3.37,0,0,0-1.49-.51l.19-1c1.36.26,2.09.64,2.28,1.21a.92.92,0,0,1-.2.91A3.89,3.89,0,0,1,379.83,332.78Z" style="fill:#263238"></path><path d="M337.08,332c-.75,0-1.41,0-2,0-7.17-.2-7.17-1.26-7.17-1.61h1a.39.39,0,0,0-.07-.24s.76.7,6.27.85c1.64.05,3.81,0,6.84-.05l0,1C340,331.93,338.41,332,337.08,332Z" style="fill:#263238"></path></g><g id="freepik--Branch--inject-50"><path d="M453.85,87.88l-32.8-27.34-13.35-8c1-1,1.64-1.78,1.64-1.78a9.93,9.93,0,0,0-4.18-2.54l40.19-17.71V12.16L401.51,37.29c-.2-1.57-.38-2.71-.38-2.71a23,23,0,0,0-5.38,4.7,6.11,6.11,0,0,0-.88,1.81l-2.14,1.23-3.59-.39L371.58,32a10.22,10.22,0,0,0-4.18-6.56c-4.74-3.7-15.74,1.17-15.74,1.17a68.75,68.75,0,0,0,8.83,5.88c4.87,2.68,11.14.75,11.14.75a1.57,1.57,0,0,0,0-.2l11.56,8.27L361.33,38.9l-7.48-1.44-15.43-9.65a7.16,7.16,0,0,0-1.1-3s-2.18-4.22-4.23-7.8-14.72-8.69-14.72-8.69a8.23,8.23,0,0,0,2.18,9.22,79.13,79.13,0,0,0,8.33,6.64s-6.79-4-11.27-4.72-15.73,2.83-15.73,2.83a67.06,67.06,0,0,0,11.52,6c5.76,2.17,17.66.11,17.66.11l-2,7-4.47-.48-25,1.18c.42-2.18.6-3.83.6-3.83S292.48,30.47,289,34.9c-.51.66-1,1.29-1.42,1.91l-2.34.16a14,14,0,0,0,0-4.67c-.9-4.2-10.41-14.39-10.41-14.39a36.91,36.91,0,0,0-3,11.08c-.18,2.35,1.15,5.69,2.72,8.75l-41.56,3c-1.61-1.82-5.05-4.57-11.43-5.06-9.63-.74-20,15.56-20,15.56a111.07,111.07,0,0,0,17.05,0c8.89-.74,15.56-8.89,15.56-8.89L234,42l29.81,1L214.13,63.81l-29.22.81a11.48,11.48,0,0,0-4.13-3s-6.67-3.7-12.6-6.67-27.42,1.49-27.42,1.49a13.21,13.21,0,0,0,11.12,10.37,124.71,124.71,0,0,0,17.05,1.48S156.33,69,149.66,72s-18.53,17.79-18.53,17.79a107.27,107.27,0,0,0,20.75-2.23C161.51,85.3,175.59,72,175.59,72l3.71,11.86s8.89-6.67,8.15-13.34a11.07,11.07,0,0,0-.7-2.83l22.93,2.09L166,92.71l28.25-10.56c-5,2.66-14.67,9.58-11.83,22.84,3.81,17.72,12.71,25.33,12.71,25.33S210.33,101.77,197.2,81l36.2-13.53,41.5-14.82L262.13,71.55a9.86,9.86,0,0,0-5.45,3.36l-1.59,1.71c-3,1.22-17.58,8-14.16,23.92,3.8,17.72,12.7,25.33,12.7,25.33s10-18.75,6.82-36.89A44.65,44.65,0,0,0,262,81.35s.07,7,2.35,10.59,14.73,9.94,14.73,9.94a37,37,0,0,0-1-11.44c-1.5-5.29-12.54-12.84-12.54-12.84l10.56-2.25s-5.37-4.75-11.21-4.28l28.61-23.74,1.13-.62,29.93-3.65,1.51.37a11.77,11.77,0,0,0-2.2,3c-1-1.11-1.64-1.82-1.64-1.82a37.22,37.22,0,0,0-3,11.08,14,14,0,0,0,1.37,5.85,17.84,17.84,0,0,0,.47,3.85s.4-.21,1.06-.62c.64,1.2,1.3,2.35,1.91,3.37-1.65-.83-3.82-1.89-5.84-2.82-4-1.84-14.53,4.23-14.53,4.23s3.11,7.28,8.74,7.47a49.37,49.37,0,0,0,8.78-.47l.14.09c-1.81.62-6.5,2.41-8.78,5-2.86,3.21-5.46,16.91-5.46,16.91a37.11,37.11,0,0,0,10.71-4.12c4.62-2.89,8.78-15.37,8.86-15.6h0l5.08,9.51s2.47-5.22,1.48-10.25a5,5,0,0,0,.75-.42s4.63-2.3,8.47-4.44a4.64,4.64,0,0,0,1.39-1.32l8.89-2.11-4,18.35c-1.75.5-4,1.17-6,1.83-4.17,1.37-7.8,13-7.8,13s7.23,3.23,11.49-.44a46.67,46.67,0,0,0,6.68-7s-3.54,6-3.46,10.28,7.46,16.12,7.46,16.12a37.08,37.08,0,0,0,5.07-10.3c1.45-5.3-4.09-17.48-4.09-17.48l10.2,3.54s-2.16-6.92-7.47-9.51-8.91-.91-8.91-.91l-.82.23,12-20.64,29.64-13.06,8.74,2.63,16.77,8.42,20.89,22.75-17.77-3.17a33,33,0,0,0,3.36-3.4s-3.39-3.58-6.71-2.49a29.07,29.07,0,0,0-5.52,2.44s3.47-2.6,4.45-5.09-.43-11-.43-11a23.19,23.19,0,0,0-5.38,4.71c-1.29,1.66-1.68,5.44-1.8,8.11-.57-1-1.33-2.3-2.05-3.47-1.44-2.33-9-2.82-9-2.82s-.89,4.85,2,6.89A30.69,30.69,0,0,0,405,81a.3.3,0,0,1,0,.1c-1.15-.31-4.19-1-6.26-.46-2.59.68-8.66,6.88-8.66,6.88a23.19,23.19,0,0,0,7,1.56c3.39.1,9.85-4.94,10-5h0l-.64,6.68a11.79,11.79,0,0,0,4.3-4.8,4.89,4.89,0,0,0,.53,0s3.19.4,5.92.61a2.87,2.87,0,0,0,1.18-.2l5.34,2-8.41,8.13c-1.08-.34-2.46-.76-3.74-1.12-2.64-.73-8.51,4-8.51,4s2.63,4.17,6.11,3.73a29.12,29.12,0,0,0,5.87-1.33s-3.89,1.88-5.34,4.13S408,116.81,408,116.81a23.13,23.13,0,0,0,6.17-3.59C416.7,111,418,102.75,418,102.75l4.07,5.35s1.26-4.33-.59-7.5-4.32-3.55-4.32-3.55l-.5-.16,13.36-6.55,55.14,9.56,6.33-9.52ZM337.72,31.72a7.06,7.06,0,0,0,.61-1.71l9.18,7.39-16.75-1.82C333,35.19,336.44,34.19,337.72,31.72Zm8.41,34.75A52.79,52.79,0,0,0,347.6,59s-7.71-1.79-11.19,2.63a46.31,46.31,0,0,0-5.21,8.16s2.33-6.55,1.43-10.75a8.58,8.58,0,0,0-.87-2.14,28.71,28.71,0,0,0,6.36-10.45l34.6,8.51Z" style="fill:#92E3A9"></path></g></svg>